<?xml version="1.0" encoding="UTF-8" standalone="no"?>
<!-- Created with Inkscape (http://www.inkscape.org/) -->

<svg
   width="120"
   height="120"
   viewBox="0 0 120 120"
   version="1.1"
   id="svg1"
   inkscape:version="1.3 (0e150ed, 2023-07-21)"
   sodipodi:docname="chainsword.svg"
   xmlns:inkscape="http://www.inkscape.org/namespaces/inkscape"
   xmlns:sodipodi="http://sodipodi.sourceforge.net/DTD/sodipodi-0.dtd"
   xmlns="http://www.w3.org/2000/svg"
   xmlns:svg="http://www.w3.org/2000/svg">
  <sodipodi:namedview
     id="namedview1"
     pagecolor="#ffffff"
     bordercolor="#000000"
     borderopacity="0.25"
     inkscape:showpageshadow="2"
     inkscape:pageopacity="0.0"
     inkscape:pagecheckerboard="0"
     inkscape:deskcolor="#d1d1d1"
     inkscape:document-units="px"
     inkscape:zoom="1.9666667"
     inkscape:cx="59.745763"
     inkscape:cy="60"
     inkscape:window-width="1312"
     inkscape:window-height="449"
     inkscape:window-x="0"
     inkscape:window-y="37"
     inkscape:window-maximized="0"
     inkscape:current-layer="layer1" />
  <defs
     id="defs1" />
  <g
     inkscape:label="Layer 1"
     inkscape:groupmode="layer"
     id="layer1">
    <path
       d="m 101.33608,16.400003 c -0.6,0.1 -1.499997,0.3 -2.099993,0.2 l 0.499996,-0.7 c -0.899996,-0.5 -2.099996,-0.3 -2.899996,-0.9 -0.1,0 -0.3,0.1 -0.4,0.2 -1.3,1.2 -2.5,2.4 -3.8,3.6 0,0.1 0,0.4 -0.1,0.5 -0.9,1 -6.9,7.2 -7.6,8 0,0 0,0.2 0,0.3 v 0 c 0.1,0.1 0.2,0.2 0.2,0.2 0,0 -22.5,22.4 -33.5,33.4 -0.3,0.3 -0.6,1.1 -1.3,0.7 0,0 -0.1,0.1 -0.2,0.2 -1.5,1.3 -3,2.7 -4.4,4 -1,0.9 -2,1.8 -3,2.8 -0.3,0.3 -1,0.2 -0.9,0.9 -0.6,0 -0.6,0.7 -1,1 -0.1,0.1 -0.2,0.1 -0.4,0.1 -0.5,0 -1,-0.1 -1.5,-0.1 -0.1,0.8 -0.1,1.6 -0.2,2.5 0.5,0.5 1.1,1.1 1.8,1.8 -0.2,0.1 -0.4,0.3 -0.6,0.4 -0.7,0.1 -1,0.4 -1,1 0,0.1 -0.2,0.3 -0.3,0.4 -0.7,0 -1,0.4 -1.1,1.1 0,0.1 -0.2,0.4 -0.3,0.4 -0.7,0 -1.1,0.4 -1.1,1.1 0,0.1 -0.2,0.3 -0.3,0.3 -0.7,0 -1.1,0.4 -1.1,1.1 0,0.1 -0.2,0.3 -0.3,0.3 -0.7,0 -1,0.4 -1,1.1 0,0.1 -0.2,0.3 -0.4,0.3 -0.7,0.1 -1,0.4 -1,1.099999 0,0.1 -0.2,0.3 -0.3,0.3 -0.6,0.1 -1,0.4 -1.1,1 0,0.1 -0.2,0.3 -0.3,0.4 -0.7,0.1 -1.1,0.400001 -1,1.1 0,0.1 -0.2,0.3 -0.3,0.3 -0.7,0 -1.1,0.4 -1.1,1.1 0,0.1 -0.2,0.3 -0.3,0.3 -0.7,0 -1,0.4 -1.1,1 0,0.1 -0.2,0.3 -0.3,0.3 -0.7,0 -1.1,0.4 -1.1,1.1 0,0.1 -0.2,0.4 -0.3,0.4 -0.7,0 -1,0.4 -1.1,1.1 0,0.1 -0.2,0.3 -0.3,0.3 -0.7,0.1 -1,0.4 -1,1.1 0,0.1 -0.3,0.4 -0.3,0.4 l -1.4,0.5 -2.3,-2.3 -2.2,2.2 2.4,2.4 -0.6,4.199998 5.3,0.1 4.1,4 21.8,-21.799998 c 0.8,-0.8 0.9,-1.5 0.4,-2.5 -0.2,-0.5 -0.4,-1 -0.7,-1.5 -0.2,-0.3 -0.1,-0.5 0.1,-0.7 0.6,-0.6 1.2,-1.2 1.9,-1.9 -0.1,-0.1 -0.2,-0.2 -0.2,-0.3 1.3,-0.6 2.4,0 3.4,0.9 1.2,-1.7 -0.6,-2.3 -1.3,-3.4 1.6,-1 2.9,-0.6 4,0.5 1.1,-1.6 -0.3,-2.2 -1.1,-3.2 1.5,-1 2.7,-0.3 3.8,0.6 1.1,-1.7 -0.5,-2.3 -1.2,-3.4 1.5,-0.6 2.5,0 3.4,0.9 1,-1.5 -0.3,-2.2 -1,-3.1 1.6,-1 2.7,-0.3 4,0.9 0,-0.9 0.2,-1.6 -0.1,-2.1 -0.3,-0.6 -0.9,-0.9 -1.4,-1.5 1.6,-1.1 2.9,-0.4 3.9,0.6 1.1,-1.7 -0.5,-2.4 -1.2,-3.4 1.6,-1.1 2.8,-0.6 4,0.5 1.1,-1.6 -0.4,-2.2 -1.1,-3.2 1.5,-1 2.7,-0.2 3.8,0.6 1,-1.6 -0.4,-2.3 -1.1,-3.3 1.5,-0.9 2.7,-0.3 3.7,0.7 1.2,-1.6 -0.4,-2.3 -1.2,-3.3 0.4,-0.2 0.8,-0.5 1.1,-0.4 0.9,0.2 1.9,0.5 2.8,0.8 0.9,-1.3 -0.5,-2.1 -1.3,-3.1 1.5,-0.8 2.6,-0.2 3.6,0.8 1.2,-1.6 -0.4,-2.2 -1.1,-3.2 1.5,-0.7 2.5,0 3.5,0.8 1.1,-1.6 -0.4,-2.2 -1.1,-3.2 1.5,-1.1 2.7,-0.4 3.8,0.5 1.1,-1.6 -0.5,-2.2 -1.1,-3.2 1.5,-0.8 2.6,-0.1 3.6,0.8 1.1,-1.6 -0.4,-2.3 -1.1,-3.3 1.5,-0.9 2.7,-0.4 3.8,0.6 1.2,-1.6 -0.4,-2.2 -1.1,-3.2 1.5,-0.8 2.6,-0.1 3.5,0.8 1.1,-1.6 -0.5,-2.2 -1.1,-3.3 1.5,-1 2.6,-0.2 3.7,0.7 1.1,-1.6 -0.4,-2.3 -1.1,-3.3 1.5,-0.8 2.7,-0.3 3.7,0.7 1.2,-1.6 -0.3,-2.3 -1.2,-3.5 0.9,0 1.5,-0.2 2.1,0 0.599996,0.2 1.099993,0.6 1.699993,0.9 1.1,-1.7 -0.7,-2.3 -1.299993,-3.3 1.399993,-0.5 2.199993,0.3 3.099993,1 1.2,-1.9 -0.9,-2.5 -1.4,-3.9 0.8,0.3 1.7,0.5 2.5,0.8 0.3,-1 0.1,-1.7 -0.9,-2.3 -0.6,-0.3 -1.1,-0.8 -1.7,-1.3 0,-0.1 0.1,-0.2 0.1,-0.3 0.8,0.1 1.5,0.2 2.3,0.2 0.2,-2 -1.6,-1.8 -2.7,-2.9 0.8,-0.3 1.7,-0.5 2.5,-0.8 -0.2,-0.7 -0.7,-1.3 -1.9,-1.099999 z m -55.299993,64 c 0.7,0.8 0.7,1.4 0,2.2 -1.5,1.5 -12.6,12.6 -16.7,16.699995 -1.4,1.500002 -2,1.400002 -3.2,0.3 -0.5,-0.4 -1.1,-1.1 -1.1,-1.1 0,0 0.5,-0.899995 0.6,-0.899995 0.7,-0.1 1,-0.4 1,-1 0,-0.1 0.2,-0.3 0.3,-0.4 0.7,0 1,-0.4 1.1,-1.1 0,-0.1 0.2,-0.4 0.3,-0.4 0.7,0 1.1,-0.4 1.1,-1.1 0,-0.1 0.2,-0.3 0.3,-0.3 0.7,0 1.1,-0.4 1.1,-1.1 0,-0.1 0.2,-0.3 0.3,-0.3 0.7,0 1,-0.4 1,-1.1 0,-0.1 0.2,-0.3 0.4,-0.3 0.7,-0.1 1,-0.4 1,-1.1 0,-0.1 0.2,-0.3 0.3,-0.3 0.6,-0.1 1,-0.4 1.1,-1 0,-0.1 0.2,-0.3 0.3,-0.4 0.7,-0.1 1.1,-0.4 1,-1.1 0,-0.1 0.2,-0.3 0.3,-0.3 0.7,0 1.1,-0.4 1.1,-1.1 0,-0.1 0.2,-0.3 0.3,-0.3 0.7,0 1,-0.4 1.1,-1 0,-0.1 0.2,-0.3 0.3,-0.3 0.7,0 1.1,-0.4 1.1,-1.1 0,-0.1 0.2,-0.4 0.3,-0.4 0.7,0 1,-0.4 1.1,-1.1 0,-0.1 0.2,-0.3 0.3,-0.3 0.7,-0.1 1,-0.4 1,-1.1 0,-0.1 0.3,-0.4 0.3,-0.4 v 0 l 0.6,-0.6 c 0.2,0 1.5,1.2 2,1.8 z"
       id="path1" />
  </g>
</svg>
