<?xml version="1.0" encoding="UTF-8" standalone="no"?>
<!-- Created with Inkscape (http://www.inkscape.org/) -->

<svg
   width="1200"
   height="630"
   viewBox="0 0 1200 630"
   version="1.1"
   id="svg1"
   sodipodi:docname="og.svg"
   xmlns:inkscape="http://www.inkscape.org/namespaces/inkscape"
   xmlns:sodipodi="http://sodipodi.sourceforge.net/DTD/sodipodi-0.dtd"
   xmlns="http://www.w3.org/2000/svg"
   xmlns:svg="http://www.w3.org/2000/svg">
  <sodipodi:namedview
     id="namedview1"
     pagecolor="#ffffff"
     bordercolor="#000000"
     borderopacity="0.25"
     inkscape:showpageshadow="2"
     inkscape:pageopacity="0.0"
     inkscape:pagecheckerboard="0"
     inkscape:deskcolor="#d1d1d1"
     inkscape:document-units="px"
     showguides="true"
     showgrid="true">
    <sodipodi:guide
       position="0,630"
       orientation="0,1200"
       id="guide1"
       inkscape:locked="false" />
    <sodipodi:guide
       position="1200,630"
       orientation="630,0"
       id="guide2"
       inkscape:locked="false" />
    <sodipodi:guide
       position="1200,0"
       orientation="0,-1200"
       id="guide3"
       inkscape:locked="false" />
    <sodipodi:guide
       position="0,0"
       orientation="-630,0"
       id="guide4"
       inkscape:locked="false" />
    <sodipodi:guide
       position="600,315"
       orientation="0.60000143,0.79999893"
       id="guide5"
       inkscape:locked="false"
       inkscape:label=""
       inkscape:color="rgb(0,134,229)" />
    <inkscape:grid
       id="grid6"
       units="px"
       originx="600"
       originy="315"
       spacingx="30"
       spacingy="30"
       empcolor="#0099e5"
       empopacity="0.30196078"
       color="#0099e5"
       opacity="0.14901961"
       empspacing="5"
       dotted="true"
       gridanglex="30"
       gridanglez="30"
       visible="true" />
    <sodipodi:guide
       position="600,315"
       orientation="-0.60000143,0.79999893"
       id="guide7"
       inkscape:locked="false"
       inkscape:label=""
       inkscape:color="rgb(0,134,229)" />
    <sodipodi:guide
       position="180,615"
       orientation="-1,0"
       id="guide9"
       inkscape:locked="false"
       inkscape:label=""
       inkscape:color="rgb(0,134,229)" />
    <sodipodi:guide
       position="90,525"
       orientation="0,1"
       id="guide11"
       inkscape:label=""
       inkscape:locked="false"
       inkscape:color="rgb(0,134,229)" />
    <sodipodi:guide
       position="600,315"
       orientation="-0.47408729,-0.88047785"
       id="guide12"
       inkscape:label=""
       inkscape:locked="false"
       inkscape:color="rgb(0,134,229)" />
    <sodipodi:guide
       position="90,615"
       orientation="0,1"
       id="guide13"
       inkscape:label=""
       inkscape:locked="false"
       inkscape:color="rgb(0,134,229)" />
    <sodipodi:guide
       position="90,450"
       orientation="0,1"
       id="guide14"
       inkscape:label=""
       inkscape:locked="false"
       inkscape:color="rgb(0,134,229)" />
    <sodipodi:guide
       position="210,615"
       orientation="-1,0"
       id="guide15"
       inkscape:label=""
       inkscape:locked="false"
       inkscape:color="rgb(0,134,229)" />
    <sodipodi:guide
       position="349.26334,448.20139"
       orientation="-1,0"
       id="guide16"
       inkscape:locked="false"
       inkscape:label=""
       inkscape:color="rgb(0,134,229)" />
    <sodipodi:guide
       position="600,315"
       orientation="-0.63552845,-0.77207745"
       id="guide17"
       inkscape:label=""
       inkscape:locked="false"
       inkscape:color="rgb(0,134,229)" />
    <sodipodi:guide
       position="90,375"
       orientation="0,1"
       id="guide18"
       inkscape:label=""
       inkscape:locked="false"
       inkscape:color="rgb(0,134,229)" />
    <sodipodi:guide
       position="90,435"
       orientation="0,1"
       id="guide19"
       inkscape:label=""
       inkscape:locked="false"
       inkscape:color="rgb(0,134,229)" />
  </sodipodi:namedview>
  <defs
     id="defs1" />
  <g
     inkscape:label="Layer 1"
     inkscape:groupmode="layer"
     id="layer1">
    <rect
       style="font-variation-settings:'wght' 150;fill:#1e40af;fill-opacity:1"
       id="rect19"
       width="1200"
       height="630"
       x="0"
       y="0" />
    <g
       id="g19"
       style="fill:#dbeafe;fill-opacity:1"
       transform="translate(-2.4035629e-5,38.147057)">
      <path
         d="m 94.303287,105.04412 h 19.632333 l 21.72792,74.99992 h -13.89705 l -4.85293,-16.5441 H 91.545937 l -4.742642,16.5441 H 73.016546 Z m 19.411743,46.21318 -9.59558,-33.41908 h -0.11029 l -9.154403,33.41908 z m 30.99245,-28.78673 h 13.45586 v 7.94117 h 0.88236 q 3.08823,-5.40441 6.39705,-7.3897 3.30882,-1.98529 9.37499,-1.98529 8.38234,0 12.9044,2.09558 4.52205,1.9853 6.39705,6.83823 1.98529,4.74264 1.98529,13.67646 v 36.39702 h -13.45587 v -36.61761 q 0,-4.08088 -0.99264,-6.28676 -0.88236,-2.31617 -3.19853,-3.19852 -2.31617,-0.99265 -6.50735,-0.99265 -5.4044,0 -8.38234,1.54412 -2.86764,1.54411 -4.19117,5.29411 -1.21324,3.6397 -1.21324,10.36763 v 29.88968 h -13.45586 z m 87.35268,58.67641 q -9.37499,0 -14.55881,-2.64706 -5.07353,-2.75735 -7.27941,-9.1544 -2.09558,-6.50735 -2.09558,-18.4191 0,-11.80146 2.09558,-18.08821 2.20588,-6.39706 7.27941,-9.04411 5.18382,-2.75735 14.55881,-2.75735 7.2794,0 10.58822,1.43382 3.30882,1.43382 5.07352,5.40441 h 0.88236 V 99.750006 h 13.34557 v 80.294034 h -13.34557 v -5.95588 h -0.88236 q -2.53676,4.08088 -5.84558,5.62499 -3.19852,1.43383 -9.81616,1.43383 z m 3.86029,-11.58087 q 5.07352,0 7.83087,-1.65441 2.75735,-1.76471 3.86029,-5.73529 1.21323,-3.97058 1.21323,-11.24999 0,-7.2794 -1.21323,-11.13969 -1.10294,-3.97059 -3.86029,-5.625 -2.75735,-1.65441 -7.83087,-1.65441 -5.625,0 -8.71323,1.65441 -2.97794,1.65441 -4.30147,5.625 -1.21323,3.86029 -1.21323,11.13969 0,7.27941 1.21323,11.36028 1.32353,3.97059 4.30147,5.625 3.08823,1.65441 8.71323,1.65441 z m 48.1983,-47.09554 h 12.13234 l -0.55147,11.80146 h 1.21323 q 4.08088,-6.83823 5.73529,-9.04411 1.7647,-2.20588 3.75,-2.75735 1.98529,-0.55147 7.05881,-0.55147 h 0.33088 q 5.40441,0.11029 10.80882,0.22059 v 13.23528 q -9.59558,-0.55147 -16.6544,0.44117 -2.20588,0.33089 -4.74264,2.86765 -2.53676,2.53676 -4.19117,6.17646 -1.65441,3.52941 -1.65441,6.83823 v 28.34556 h -13.23528 z m 77.53652,-22.720564 h 16.87498 v 15.551454 h -16.87498 z m -15.99263,68.933744 h 19.19115 v -34.8529 h -18.08821 v -11.36028 h 31.32349 v 46.21318 h 18.4191 v 11.36029 h -50.84553 z m 84.15416,6.06617 h -3.75 l -18.74998,-52.27935 h 13.67646 l 13.78675,42.3529 h 0.55147 l 13.56616,-42.3529 h 13.89705 l -28.67644,81.28668 h -13.89705 z m 130.47745,-57.13229 h -20.07351 v -12.57351 h 54.26465 v 12.57351 h -20.07351 v 62.42641 h -14.11763 z m 68.05124,57.13229 h -3.75 l -18.74998,-52.27935 h 13.67646 l 13.78675,42.3529 h 0.55147 l 13.56616,-42.3529 h 13.89704 l -28.67644,81.28668 h -13.89704 z m 64.96297,6.28676 q -7.61029,0 -11.80146,-1.98529 -4.08087,-1.98529 -5.84558,-6.72793 -1.7647,-4.74264 -1.7647,-13.45587 v -36.39702 h 13.45586 v 36.61761 q 0,4.08088 0.88236,6.39705 0.88235,2.20588 2.97793,3.19852 2.09559,0.88236 5.95588,0.88236 5.84558,0 8.93381,-1.54412 3.08824,-1.54411 4.41176,-5.18382 1.32353,-3.74999 1.32353,-10.58822 v -29.77938 h 13.45587 v 57.57347 h -13.45587 v -8.05147 h -0.88235 q -2.86764,5.18382 -6.61764,7.16911 -3.6397,1.875 -11.0294,1.875 z m 54.04393,-58.56611 h 12.13234 l -0.55147,11.80146 h 1.21323 q 4.08088,-6.83823 5.73529,-9.04411 1.76471,-2.20588 3.75,-2.75735 1.98529,-0.55147 7.05881,-0.55147 h 0.33089 q 5.4044,0.11029 10.80881,0.22059 v 13.23528 q -9.59558,-0.55147 -16.6544,0.44117 -2.20588,0.33089 -4.74264,2.86765 -2.53676,2.53676 -4.19117,6.17646 -1.65441,3.52941 -1.65441,6.83823 v 28.34556 h -13.23528 z m 59.11739,0 h 13.45587 v 7.94117 h 0.88235 q 3.08823,-5.40441 6.39705,-7.3897 3.30882,-1.98529 9.37499,-1.98529 8.38235,0 12.9044,2.09558 4.52206,1.9853 6.39705,6.83823 1.9853,4.74264 1.9853,13.67646 v 36.39702 h -13.45587 v -36.61761 q 0,-4.08088 -0.99265,-6.28676 -0.88235,-2.31617 -3.19852,-3.19852 -2.31618,-0.99265 -6.50735,-0.99265 -5.40441,0 -8.38234,1.54412 -2.86765,1.54411 -4.19118,5.29411 -1.21323,3.6397 -1.21323,10.36763 v 29.88968 h -13.45587 z m 84.59531,-22.720564 h 16.87498 v 15.551454 h -16.87498 z m -15.99263,68.933744 h 19.19116 v -34.8529 H 876.1754 v -11.36028 h 31.3235 v 46.21318 h 18.41909 v 11.36029 h -50.84553 z m 77.86743,-19.96321 v 31.3235 H 939.70461 V 99.750006 h 13.23528 V 147.7279 l 24.37498,-25.25733 h 15.88233 l -25.25732,25.6985 27.79408,31.87497 h -16.87498 z m 77.64681,32.31614 q -10.6985,0 -16.5441,-2.64705 -5.8456,-2.75735 -8.3824,-9.04411 -2.4264,-6.39705 -2.4264,-18.19851 0,-11.91175 2.4264,-18.3088 2.5368,-6.39706 8.2721,-9.04411 5.8456,-2.75735 16.6544,-2.75735 10.8088,0 16.5441,2.75735 5.8456,2.64705 8.272,9.04411 2.5368,6.39705 2.5368,18.3088 0,11.80146 -2.5368,18.19851 -2.4264,6.28676 -8.272,9.04411 -5.8456,2.64705 -16.5441,2.64705 z m 0,-11.47057 q 5.5147,0 8.3823,-1.65441 2.978,-1.65441 4.1912,-5.5147 1.3235,-3.97059 1.3235,-11.24999 0,-7.3897 -1.3235,-11.36028 -1.2132,-3.97059 -4.1912,-5.625 -2.8676,-1.7647 -8.3823,-1.7647 -5.5147,0 -8.4927,1.7647 -2.8676,1.65441 -4.1911,5.625 -1.2133,3.97058 -1.2133,11.36028 0,7.2794 1.2133,11.24999 1.3235,3.86029 4.1911,5.5147 2.978,1.65441 8.4927,1.65441 z m 35.9557,-47.09554 h 14.0073 l 15.7721,41.36025 h 0.8823 l 15.7721,-41.36025 h 14.0073 l -23.7132,57.57347 h -13.0147 z"
         id="text7-5"
         style="font-size:110.294px;line-height:1;font-family:'Berkeley Mono Variable';-inkscape-font-specification:'Berkeley Mono Variable, @wght=150.0';font-variation-settings:'wght' 150;text-align:center;text-anchor:middle"
         aria-label="Andriy Tyurnikov" />
      <path
         d="m 260.64783,374.98529 h 9.70588 l 3.44118,47.20588 h 0.0882 l 0.61764,-10.94117 5.64706,-36.26471 h 12.70589 l 5.47058,36.26471 0.70589,10.94117 h 0.0882 l 3.52941,-47.20588 h 9.70589 l -7.14706,60 h -11.7353 l -6.79411,-52.2353 h -0.35295 l -6.88235,52.2353 h -11.64706 z m 79.58811,60.79412 q -8.64706,0 -13.32353,-2.11765 -4.67647,-2.20588 -6.70589,-7.41176 -1.94117,-5.20589 -1.94117,-14.7353 0,-9.35294 1.85294,-14.38235 1.94117,-5.11765 6.44117,-7.2353 4.58824,-2.11764 12.97059,-2.11764 8.55883,0 13.05883,2.55882 4.58823,2.55882 6.35294,8.55882 1.85294,5.91177 1.5,16.85295 h -31.32353 q 0.35294,4.32353 1.41176,6.70588 1.05883,2.29412 3.26471,3.2647 2.29412,0.97059 6.35294,0.97059 3.97059,0 5.7353,-1.23529 1.85294,-1.2353 2.91176,-4.58824 h 10.94118 q -0.88236,5.82353 -2.91177,9 -2.02941,3.17647 -5.91176,4.58824 -3.88236,1.32353 -10.67647,1.32353 z m 9.70588,-28.41177 q 0,-4.05882 -1.05882,-6.2647 -0.97059,-2.29412 -3.26471,-3.26471 -2.20588,-0.97059 -6.08824,-0.97059 -3.70588,0 -6,0.97059 -2.20588,0.97059 -3.2647,3.26471 -1.05883,2.20588 -1.05883,6.2647 z m 45.97045,28.5 q -4.32353,0 -6.97058,-1.14706 -2.55883,-1.23529 -5.47059,-4.58823 h -0.70589 v 4.85294 h -10.67647 l 0.0882,-64.2353 h 10.67647 l -0.0882,21.70589 h 0.70589 q 2.38235,-3.26471 5.02941,-4.5 2.64706,-1.2353 7.41176,-1.2353 7.58824,0 11.64706,2.20588 4.14706,2.20589 5.82353,7.50001 1.76471,5.20588 1.76471,14.82353 0,9.70588 -1.76471,15 -1.67647,5.20588 -5.82353,7.41176 -4.05882,2.20588 -11.64706,2.20588 z m -3,-9.2647 q 4.5,0 6.88236,-1.32353 2.47059,-1.41177 3.44117,-4.67647 1.05883,-3.26471 1.05883,-9.35294 0,-6 -1.05883,-9.26471 -0.97058,-3.26471 -3.44117,-4.58824 -2.38236,-1.41176 -6.88236,-1.41176 -4.05882,0 -6.2647,1.41176 -2.20588,1.32353 -3.17647,4.58824 -0.88236,3.26471 -0.88236,9.26471 0,6 0.88236,9.35294 0.97059,3.2647 3.17647,4.67647 2.20588,1.32353 6.2647,1.32353 z m 98.02915,9.08823 q -5.20588,0 -14.38235,-0.70588 v -60 q 6.61764,-0.44118 10.67647,-0.35294 4.05882,0 8.55882,0.44117 10.05883,0.97059 15.52941,4.05883 5.55883,3.08823 7.85295,9.35294 2.29411,6.17647 2.29411,17.29412 0,11.91176 -2.73529,18.35294 -2.7353,6.35294 -9.26471,9.08823 -6.52941,2.64706 -18.52941,2.47059 z m 3.88235,-9.70588 q 6,-0.35294 9.26471,-2.29412 3.26471,-1.94117 4.58824,-6.2647 1.41176,-4.41177 1.41176,-12.26471 0,-7.41177 -1.32353,-11.55882 -1.32353,-4.2353 -4.5,-6.17648 -3.08824,-2.02941 -8.82353,-2.64705 -4.5,-0.44118 -7.58824,-0.44118 v 41.38235 q 2.55883,0.17647 4.14706,0.26471 1.67647,0.0882 2.82353,0 z m 57.17635,9.79412 q -8.64706,0 -13.32353,-2.11765 -4.67647,-2.20588 -6.70588,-7.41176 -1.94118,-5.20589 -1.94118,-14.7353 0,-9.35294 1.85294,-14.38235 1.94118,-5.11765 6.44118,-7.2353 4.58824,-2.11764 12.97059,-2.11764 8.55882,0 13.05882,2.55882 4.58824,2.55882 6.35295,8.55882 1.85294,5.91177 1.5,16.85295 h -31.32353 q 0.35294,4.32353 1.41176,6.70588 1.05882,2.29412 3.26471,3.2647 2.29411,0.97059 6.35294,0.97059 3.97059,0 5.73529,-1.23529 1.85294,-1.2353 2.91177,-4.58824 h 10.94117 q -0.88235,5.82353 -2.91176,9 -2.02941,3.17647 -5.91177,4.58824 -3.88235,1.32353 -10.67647,1.32353 z m 9.70589,-28.41177 q 0,-4.05882 -1.05883,-6.2647 -0.97059,-2.29412 -3.2647,-3.26471 -2.20589,-0.97059 -6.08824,-0.97059 -3.70588,0 -6,0.97059 -2.20588,0.97059 -3.26471,3.26471 -1.05882,2.20588 -1.05882,6.2647 z m 18.26456,-18.44118 h 11.20589 l 12.61764,33.08824 h 0.70589 l 12.61764,-33.08824 h 11.20589 l -18.97059,46.05883 h -10.41177 z m 77.91163,46.85295 q -8.64706,0 -13.32353,-2.11765 -4.67647,-2.20588 -6.70588,-7.41176 -1.94118,-5.20589 -1.94118,-14.7353 0,-9.35294 1.85294,-14.38235 1.94118,-5.11765 6.44118,-7.2353 4.58824,-2.11764 12.97059,-2.11764 8.55882,0 13.05882,2.55882 4.58824,2.55882 6.35295,8.55882 1.85294,5.91177 1.5,16.85295 h -31.32353 q 0.35294,4.32353 1.41176,6.70588 1.05882,2.29412 3.26471,3.2647 2.29411,0.97059 6.35294,0.97059 3.97059,0 5.73529,-1.23529 1.85294,-1.2353 2.91177,-4.58824 h 10.94117 q -0.88235,5.82353 -2.91176,9 -2.02941,3.17647 -5.91177,4.58824 -3.88235,1.32353 -10.67647,1.32353 z m 9.70589,-28.41177 q 0,-4.05882 -1.05883,-6.2647 -0.97059,-2.29412 -3.2647,-3.26471 -2.20589,-0.97059 -6.08824,-0.97059 -3.70588,0 -6,0.97059 -2.20588,0.97059 -3.26471,3.26471 -1.05882,2.20588 -1.05882,6.2647 z m 21.88221,18.44118 h 16.14706 v -45.88236 h -15.26471 v -9.17647 h 25.85295 v 55.05883 h 15.08823 v 9.17647 H 689.4703 Z m 73.49987,9.97059 q -8.55883,0 -13.2353,-2.11765 -4.67647,-2.20588 -6.70588,-7.23529 -1.94118,-5.11765 -1.94118,-14.55883 0,-9.52941 1.94118,-14.64706 2.02941,-5.11764 6.61765,-7.23529 4.67647,-2.20588 13.32353,-2.20588 8.64705,0 13.23529,2.20588 4.67647,2.11765 6.61765,7.23529 2.02941,5.11765 2.02941,14.64706 0,9.44118 -2.02941,14.55883 -1.94118,5.02941 -6.61765,7.23529 -4.67647,2.11765 -13.23529,2.11765 z m 0,-9.17647 q 4.41176,0 6.70588,-1.32353 2.38235,-1.32353 3.35294,-4.41177 1.05882,-3.17647 1.05882,-9 0,-5.91176 -1.05882,-9.08823 -0.97059,-3.17647 -3.35294,-4.5 -2.29412,-1.41177 -6.70588,-1.41177 -4.41177,0 -6.79412,1.41177 -2.29412,1.32353 -3.35294,4.5 -0.97059,3.17647 -0.97059,9.08823 0,5.82353 0.97059,9 1.05882,3.08824 3.35294,4.41177 2.38235,1.32353 6.79412,1.32353 z m 30.88224,-37.67648 h 10.67647 v 4.50001 h 0.70588 q 2.82353,-3.17648 5.29412,-4.32353 2.47059,-1.14706 6.44118,-1.14706 7.85294,0 12.08824,2.20588 4.23529,2.11765 6,7.23529 1.85294,5.11765 1.85294,14.55883 0,9.35294 -1.76471,14.47059 -1.76471,5.02941 -6,7.23529 -4.14706,2.11765 -11.91176,2.11765 -4.67648,0 -7.2353,-1.14706 -2.55882,-1.14706 -4.76471,-4.32353 h -0.70588 v 23.64706 h -10.67647 z m 20.82353,37.67648 q 4.5,0 6.88235,-1.32353 2.47059,-1.32353 3.44118,-4.41177 1.05883,-3.17647 1.05883,-8.91176 0,-5.82353 -1.05883,-9 -0.97059,-3.17647 -3.44118,-4.5 -2.38235,-1.32353 -6.88235,-1.32353 -4.05882,0 -6.2647,1.32353 -2.20589,1.32353 -3.17648,4.5 -0.88235,3.17647 -0.88235,9 0,5.73529 0.88235,8.91176 0.97059,3.08824 3.17648,4.41177 2.20588,1.32353 6.2647,1.32353 z m 54.97045,9.17647 q -8.64706,0 -13.32353,-2.11765 -4.67647,-2.20588 -6.70588,-7.41176 -1.94118,-5.20589 -1.94118,-14.7353 0,-9.35294 1.85295,-14.38235 1.94117,-5.11765 6.44117,-7.2353 4.58824,-2.11764 12.97059,-2.11764 8.55883,0 13.05883,2.55882 4.58823,2.55882 6.35294,8.55882 1.85294,5.91177 1.5,16.85295 h -31.32353 q 0.35294,4.32353 1.41176,6.70588 1.05882,2.29412 3.26471,3.2647 2.29411,0.97059 6.35294,0.97059 3.97059,0 5.73529,-1.23529 1.85294,-1.2353 2.91177,-4.58824 h 10.94117 q -0.88235,5.82353 -2.91176,9 -2.02941,3.17647 -5.91177,4.58824 -3.88235,1.32353 -10.67647,1.32353 z m 9.70589,-28.41177 q 0,-4.05882 -1.05883,-6.2647 -0.97059,-2.29412 -3.2647,-3.26471 -2.20589,-0.97059 -6.08824,-0.97059 -3.70588,0 -6,0.97059 -2.20588,0.97059 -3.26471,3.26471 -1.05882,2.20588 -1.05882,6.2647 z m 27.61751,-18.44118 h 9.70588 l -0.44118,9.44118 h 0.97059 q 3.26471,-5.47059 4.58824,-7.23529 1.41176,-1.76471 3,-2.20589 1.58823,-0.44117 5.64706,-0.44117 h 0.2647 q 4.32353,0.0882 8.64706,0.17647 v 10.58823 q -7.67647,-0.44117 -13.32353,0.35295 -1.76471,0.2647 -3.79412,2.29411 -2.02941,2.02942 -3.35294,4.94118 -1.32353,2.82353 -1.32353,5.47059 v 22.67647 h -10.58823 z"
         id="text7-5-7"
         style="font-size:88.2353px;line-height:1;font-family:'Berkeley Mono Variable';-inkscape-font-specification:'Berkeley Mono Variable, @wght=150.0';font-variation-settings:'wght' 150;text-align:center;text-anchor:middle"
         aria-label="Web Developer" />
    </g>
  </g>
</svg>
