<svg
   version="1.1"
   x="0px"
   y="0px"
   viewBox="0 0 800 800"
   xml:space="preserve"
   width="800"
   height="800"
   id="svg1"
   sodipodi:docname="cult-mechanicus.svg"
   inkscape:version="1.3 (0e150ed, 2023-07-21)"
   xmlns:inkscape="http://www.inkscape.org/namespaces/inkscape"
   xmlns:sodipodi="http://sodipodi.sourceforge.net/DTD/sodipodi-0.dtd"
   xmlns="http://www.w3.org/2000/svg"
   xmlns:svg="http://www.w3.org/2000/svg"><defs
   id="defs1">&#10;        &#10;        &#10;    </defs><sodipodi:namedview
   id="namedview1"
   pagecolor="#ffffff"
   bordercolor="#000000"
   borderopacity="0.25"
   inkscape:showpageshadow="2"
   inkscape:pageopacity="0.0"
   inkscape:pagecheckerboard="0"
   inkscape:deskcolor="#d1d1d1"
   inkscape:zoom="0.42886042"
   inkscape:cx="474.51336"
   inkscape:cy="311.29009"
   inkscape:window-width="1120"
   inkscape:window-height="698"
   inkscape:window-x="152"
   inkscape:window-y="76"
   inkscape:window-maximized="0"
   inkscape:current-layer="svg1" />&#10;&#10;    <path
   d="m 800,446.26206 v -91.56041 h -59.23536 c -3.51182,-29.86678 -10.85396,-58.56567 -21.53642,-85.58215 l 50.30882,-29.05008 -45.78429,-79.30172 -49.28794,28.45388 C 656.49737,165.31673 635.47548,143.82931 611.98714,125.34735 L 640.06534,76.720944 560.76362,30.936655 533.11827,78.828034 C 505.79144,67.312542 476.65969,59.243531 446.26206,55.143689 V 3.975e-7 H 354.70165 V 55.021184 c -30.4058,4.010004 -59.56204,12.005513 -86.92155,23.439334 L 240.06942,30.454801 160.7677,76.23909 l 28.0047,48.51207 c -23.54551,18.41662 -44.62458,39.84687 -62.65735,63.70272 l -49.394106,-28.51922 -45.784289,79.30173 50.194477,28.97657 c -10.755959,26.99198 -18.187944,55.66637 -21.78143,85.52498 H -4.7499999e-8 v 91.56858 H 60.509418 c 4.287683,29.27875 12.25869,57.35695 23.455668,83.74458 l -53.502118,30.88765 45.784289,79.30172 54.433153,-31.42668 c 17.8041,22.51647 38.36048,42.75433 61.17912,60.18274 l -31.9167,55.2907 79.30172,45.78429 32.14538,-55.67455 c 26.02011,10.52728 53.62462,17.95927 82.35618,21.83043 V 800 h 91.56858 v -64.65826 c 28.74789,-3.78949 56.36874,-11.13981 82.42152,-21.59359 l 32.21071,55.79705 79.30172,-45.78429 -31.85953,-55.18452 c 22.86764,-17.37124 43.48936,-37.54377 61.35062,-60.01123 l 54.55566,31.50018 45.78429,-79.30172 -53.40411,-30.83048 c 11.26231,-26.35496 19.33132,-54.40866 23.69251,-83.67108 z M 400.00409,656.38304 c -141.59972,0 -256.38712,-114.78741 -256.38712,-256.38712 0,-141.59972 114.7874,-256.37895 256.38712,-256.37895 141.59971,0 256.38711,114.7874 256.38711,256.38712 0,141.59971 -114.79557,256.37895 -256.38711,256.37895 z"
   id="path4"
   style="stroke-width:0.816702" />&#10;<g
   id="g4"
   transform="matrix(0.39397993,0,0,-0.39397993,857.11307,671.64591)">&#10;        &#10;    </g><path
   style="font-weight:bold;font-size:38.1px;line-height:80.0096px;font-family:'Helvetica Neue';-inkscape-font-specification:'Helvetica Neue Bold';text-align:end;text-anchor:end;opacity:1;stroke:#482878;stroke-width:0.173053;stroke-linecap:square;stroke-dasharray:0.173053, 0.519161;paint-order:markers stroke fill"
   d="m 403.26215,264.75572 q -21.43095,0 -39.37314,6.97752 -17.44381,6.97752 -29.90366,20.43416 -12.45985,13.45665 -19.43737,33.89081 -6.97752,19.93577 -6.97752,45.85227 0,23.42453 4.48554,42.36351 4.98395,18.44058 13.95504,34.3892 9.4695,15.45023 22.92614,29.40527 13.45664,13.45664 31.39884,26.41489 v 58.81053 H 227.82738 v -63.79447 h 68.28001 v -2.49197 q -29.40526,-17.94219 -48.34424,-50.33783 -18.44059,-32.39562 -18.44059,-79.24468 0,-35.88439 12.95824,-66.78482 12.95825,-30.90045 35.88439,-53.3282 23.42454,-22.42774 55.32177,-35.38599 31.89723,-12.95825 69.77519,-12.95825 38.37637,0 70.27354,11.96146 31.89734,11.96147 54.82356,34.3892 23.42449,21.92935 35.88432,53.3282 12.95834,30.90043 12.95834,68.7784 0,23.42454 -5.98079,43.36031 -5.48226,19.43737 -14.95176,35.88437 -9.4695,15.94862 -22.42784,28.90687 -12.45982,12.45987 -26.41481,21.43096 v 2.49197 h 70.27358 v 63.79447 H 425.68985 v -58.81053 q 18.44057,-12.45985 31.89717,-25.9165 13.95512,-13.95504 22.92623,-29.40526 9.46962,-15.94862 13.95512,-34.8876 4.48561,-18.93898 4.48561,-42.36351 0,-52.33139 -25.91668,-79.74308 -25.91655,-27.41168 -69.77515,-27.41168 z"
   id="text3016"
   aria-label="Ω" /></svg>
